# xmcd
#
# Track frame offsets:
#        150
#        15982
#        31360
#        48836
#        63388
#        77714
#        94880
#        113408
#        131335
#        148286
#        165464
#        180242
#        195544
#        210666
#        226043
#
# Disc length: 3234 seconds
#
# Revision: 0
# Processed by: cddbd v1.5.2PL0 Copyright (c) Steve Scherf et al.
# Submitted via: CDGFix 3.8d
#
DISCID=b40ca00f
DTITLE=Various Artist - CB60014
DYEAR=1900
DGENRE=Karaoke
TTITLE0=Clay Walker - One, Two, I Love You
TTITLE1=Pam Tillis - All The Good Ones Are Gone
TTITLE2=Lee Roy Parnell - Lucky Me, Lucky You
TTITLE3=Tammy Graham - A Dozen Red Roses
TTITLE4=John Berry - I Will, If You Will
TTITLE5=Ty Herndon - Loved Too Much
TTITLE6=Patty Loveless - The Trouble With The Truth
TTITLE7=Jeff Carson - Do It Again
TTITLE8=Kippi Brannon - Daddy's Little Girl
TTITLE9=Rick Trevino - I Only Get It This Way With You
TTITLE10=James Bonamy - The Swing
TTITLE11=Mary Chapin Carpenter - The Better To Dream Of You
TTITLE12=Sammy Kershaw - Fit To Be Tied Down
TTITLE13=Gary Allan - From Where I'm Sitting
TTITLE14=Reba McEntire - I'd Rather Ride Around With You
EXTD=
EXTT0=
EXTT1=
EXTT2=
EXTT3=
EXTT4=
EXTT5=
EXTT6=
EXTT7=
EXTT8=
EXTT9=
EXTT10=
EXTT11=
EXTT12=
EXTT13=
EXTT14=
PLAYORDER=
